<svg width="468" height="241" viewBox="0 0 468 241" fill="none" xmlns="http://www.w3.org/2000/svg">
<path d="M142.128 125.521C138.274 127.401 134.502 128.281 130.811 128.16C127.091 127.982 123.725 126.847 120.71 124.758C117.696 122.668 115.263 119.725 113.41 115.93C111.585 112.191 110.776 108.491 110.983 104.829C111.19 101.167 112.381 97.8443 114.556 94.8596C116.703 91.8175 119.703 89.3559 123.557 87.475L145.124 76.9473C148.978 75.0664 152.764 74.2152 156.484 74.3939C160.175 74.515 163.527 75.6204 166.542 77.71C169.556 79.7996 171.975 82.7137 173.8 86.4521C175.653 90.248 176.476 93.9769 176.269 97.6386C176.062 101.3 174.885 104.652 172.738 107.695C170.563 110.679 167.549 113.112 163.695 114.993L142.128 125.521ZM132.849 99.0702C131.008 99.9685 129.78 101.245 129.163 102.899C128.603 104.525 128.773 106.259 129.671 108.099C130.57 109.939 131.832 111.139 133.458 111.699C135.142 112.23 136.904 112.046 138.744 111.148L154.445 103.484C156.286 102.586 157.486 101.323 158.045 99.6972C158.662 98.0429 158.521 96.2956 157.623 94.4552C156.725 92.6147 155.434 91.4288 153.75 90.8975C152.124 90.3382 150.39 90.5077 148.55 91.406L132.849 99.0702ZM166.624 127.558L189.485 116.398L195.802 129.339L133.687 159.659L127.37 146.718L150.232 135.559L146.021 126.932L162.413 118.931L166.624 127.558Z" fill="#AE2BFF"/>
<path d="M247.207 92.36V111.496H252.007V121.096H247.207V141H235.175V92.36H247.207ZM230.823 92.872V139.08H202.215V92.872H230.823ZM218.791 102.472H214.247V129.48H218.791V102.472ZM288.736 92.36H300.768V141H288.736V92.36ZM270.176 92.872C274.869 92.872 278.432 94.1093 280.864 96.584C283.296 99.0587 284.512 102.685 284.512 107.464V124.488C284.512 129.267 283.296 132.893 280.864 135.368C278.432 137.843 274.869 139.08 270.176 139.08C265.483 139.08 261.92 137.843 259.488 135.368C257.056 132.893 255.84 129.267 255.84 124.488V107.464C255.84 102.685 257.056 99.0587 259.488 96.584C261.92 94.1093 265.483 92.872 270.176 92.872ZM270.176 102.472C268.597 102.472 267.808 103.283 267.808 104.904V127.048C267.808 128.669 268.597 129.48 270.176 129.48C271.755 129.48 272.544 128.669 272.544 127.048V104.904C272.544 103.283 271.755 102.472 270.176 102.472Z" fill="#FF43D6"/>
<path d="M160.932 179.855L192.473 176.891L193.371 186.449L149.85 190.538L147.21 162.438L190.731 158.349L191.629 167.907L160.088 170.87L160.932 179.855ZM149.36 199.005L195.43 194.676L196.328 204.234L150.258 208.563L149.36 199.005Z" fill="#3E2686"/>
<path d="M252.601 201.262L251.669 210.816L205.807 206.342L206.739 196.788L223.683 198.44L223.962 195.574L208.293 194.045L210.387 172.579L242.363 175.699L242.599 173.278L210.623 170.159L211.555 160.604L254.869 164.83L252.769 186.359L220.729 183.234L220.499 185.591L253.176 188.778L252.244 198.333L235.937 196.742L235.658 199.609L252.601 201.262Z" fill="#3E2686"/>
<path d="M304.763 183.779L279.61 181.245C275.046 180.785 271.495 179.06 268.955 176.071C266.42 173.028 265.38 169.251 265.835 164.741C266.289 160.23 268.059 156.763 271.144 154.341C274.235 151.864 278.062 150.856 282.625 151.316L307.778 153.85C312.341 154.31 315.89 156.061 318.425 159.104C320.965 162.094 322.007 165.844 321.553 170.354C321.098 174.865 319.326 178.358 316.236 180.834C313.15 183.257 309.326 184.238 304.763 183.779ZM283.607 169.506L303.188 171.479C304.09 171.57 304.859 171.379 305.497 170.907C306.139 170.383 306.506 169.669 306.597 168.767C306.682 167.918 306.46 167.199 305.93 166.609C305.405 165.967 304.691 165.6 303.789 165.509L284.208 163.536C283.306 163.445 282.534 163.662 281.891 164.187C281.254 164.659 280.893 165.32 280.807 166.169C280.716 167.071 280.933 167.843 281.458 168.486C281.988 169.075 282.705 169.415 283.607 169.506ZM320.24 191.368L319.029 203.388L297.856 201.254L296.653 213.194L281.689 211.686L282.892 199.747L261.719 197.614L262.93 185.595L320.24 191.368Z" fill="#3E2686"/>
<path d="M336.151 176.199L344.102 143.55L361.575 148.07L352.695 180.479L347.629 196.224L332.945 192.425L336.151 176.199ZM339.085 198.971C341.563 199.613 343.4 200.947 344.594 202.975C345.85 205.019 346.141 207.342 345.468 209.944C344.795 212.546 343.413 214.437 341.324 215.615C339.296 216.809 337.043 217.085 334.564 216.444C332.086 215.803 330.227 214.43 328.987 212.324C327.747 210.218 327.447 207.926 328.088 205.448C328.762 202.845 330.143 200.955 332.233 199.777C334.323 198.599 336.607 198.33 339.085 198.971Z" fill="#3E2686"/>
</svg>